<svg fill="none" height="384" viewBox="0 0 1800 384" width="1800" xmlns="http://www.w3.org/2000/svg" xmlns:xlink="http://www.w3.org/1999/xlink"><mask id="a" height="371" maskUnits="userSpaceOnUse" width="1769" x="10" y="11"><path d="m1778.82 11.2207h-1768.2321v369.9593h1768.2321z" fill="#fff"/></mask><g mask="url(#a)"><path d="m1501.33 51.2486v-40.0279h-40.03v40.0279zm191.22 170.4344c-35.86-10.904-69.12-20.783-69.12-46.249v-1.059c0-22.356 20.27-38.969 51.96-38.969 25.98 0 54.55 9.879 79.51 25.979l18.18-30.149c-27.55-18.185-63.92-29.602-96.63-29.602-53.02 0-91.48 30.662-91.48 76.911v1.025c0 49.36 46.8 63.922 88.88 75.852 35.34 9.879 67.03 20.27 67.03 47.274v1.026c0 25.979-23.38 42.626-55.61 42.626-31.69 0-63.89-12.477-93.02-34.286l-20.27 28.577c30.15 24.407 72.74 39.481 111.2 39.481 53.5 0 95.61-29.602 95.61-80.534v-1.026c.03-48.3-44.68-64.4-86.24-76.877zm-191.22 153.276v-278.4867h-40.03v278.4867zm-136.63 0v-363.7383h-40.03v363.7033h40.03zm-327.37-149.139c5.2-52.471 40.54-91.439 87.31-91.439 53.53 0 81.59 42.626 85.73 91.439zm88.33-125.212c-74.31 0-128.868 62.35-128.868 140.286 0 83.679 60.298 140.286 134.068 140.286 50.93 0 83.64-20.236 110.68-50.42l-24.95-22.321c-21.81 22.868-47.82 37.943-84.71 37.943-47.27 0-88.87-32.747-94.58-90.926h213.03c.54-4.683.54-8.819.54-12.477.04-78.996-45.7-142.371-125.21-142.371zm-293.56 228.614-90.413-222.905h-44.164l116.392 270.727h35.345l116.904-270.727h-43.104zm-304.499 16.1c-56.641 0-99.267-46.728-99.267-104.941 0-58.179 40.028-104.462 98.207-104.462 56.641 0 99.779 46.762 99.779 105.488.035 57.7-40.506 103.915-98.719 103.915zm0-244.714c-81.047 0-140.286 64.435-140.286 140.799s58.726 139.773 139.26 139.773c81.047 0 140.799-64.435 140.799-140.799s-59.239-139.773-139.773-139.773zm-249.397 202.123-229.1606-291.5103h-38.4555v363.7383h40.0279v-298.2785l234.8692 298.2435h32.713v-363.7033h-39.994z" fill="#c2d500"/></g></svg>